<mxfile host="app.diagrams.net" modified="2020-10-24T10:14:48.377Z" agent="5.0 (Windows NT 10.0; Win64; x64) AppleWebKit/537.36 (KHTML, like Gecko) Chrome/86.0.4240.111 Safari/537.36" etag="ZybktMjt49PYo00hOEFY" version="13.8.1" type="github">
  <diagram id="b1L_Ne5ZEzshZ_87QJm9" name="Page-1">
    <mxGraphModel dx="813" dy="459" grid="1" gridSize="10" guides="1" tooltips="1" connect="1" arrows="1" fold="1" page="1" pageScale="1" pageWidth="827" pageHeight="1169" math="0" shadow="0">
      <root>
        <mxCell id="0" />
        <mxCell id="1" parent="0" />
        <mxCell id="YAMD4Npm-_OlHvw8ESmH-3" value="" style="edgeStyle=orthogonalEdgeStyle;rounded=0;orthogonalLoop=1;jettySize=auto;html=1;" edge="1" parent="1" source="YAMD4Npm-_OlHvw8ESmH-1" target="YAMD4Npm-_OlHvw8ESmH-2">
          <mxGeometry relative="1" as="geometry" />
        </mxCell>
        <mxCell id="YAMD4Npm-_OlHvw8ESmH-1" value="başla" style="ellipse;whiteSpace=wrap;html=1;" vertex="1" parent="1">
          <mxGeometry x="380" y="40" width="120" height="80" as="geometry" />
        </mxCell>
        <mxCell id="YAMD4Npm-_OlHvw8ESmH-7" value="" style="edgeStyle=orthogonalEdgeStyle;rounded=0;orthogonalLoop=1;jettySize=auto;html=1;" edge="1" parent="1" source="YAMD4Npm-_OlHvw8ESmH-2" target="YAMD4Npm-_OlHvw8ESmH-6">
          <mxGeometry relative="1" as="geometry" />
        </mxCell>
        <mxCell id="YAMD4Npm-_OlHvw8ESmH-2" value="n=sayi eklemek&amp;nbsp;" style="shape=parallelogram;perimeter=parallelogramPerimeter;whiteSpace=wrap;html=1;fixedSize=1;" vertex="1" parent="1">
          <mxGeometry x="362" y="170" width="156" height="40" as="geometry" />
        </mxCell>
        <mxCell id="YAMD4Npm-_OlHvw8ESmH-9" value="" style="edgeStyle=orthogonalEdgeStyle;rounded=0;orthogonalLoop=1;jettySize=auto;html=1;" edge="1" parent="1" source="YAMD4Npm-_OlHvw8ESmH-6" target="YAMD4Npm-_OlHvw8ESmH-8">
          <mxGeometry relative="1" as="geometry" />
        </mxCell>
        <mxCell id="YAMD4Npm-_OlHvw8ESmH-6" value="i=0&lt;br&gt;toplam=0" style="whiteSpace=wrap;html=1;" vertex="1" parent="1">
          <mxGeometry x="380" y="240" width="120" height="40" as="geometry" />
        </mxCell>
        <mxCell id="YAMD4Npm-_OlHvw8ESmH-11" value="" style="edgeStyle=orthogonalEdgeStyle;rounded=0;orthogonalLoop=1;jettySize=auto;html=1;" edge="1" parent="1" source="YAMD4Npm-_OlHvw8ESmH-8" target="YAMD4Npm-_OlHvw8ESmH-10">
          <mxGeometry relative="1" as="geometry" />
        </mxCell>
        <mxCell id="YAMD4Npm-_OlHvw8ESmH-17" value="E" style="edgeLabel;html=1;align=center;verticalAlign=middle;resizable=0;points=[];" vertex="1" connectable="0" parent="YAMD4Npm-_OlHvw8ESmH-11">
          <mxGeometry x="-0.2612" relative="1" as="geometry">
            <mxPoint as="offset" />
          </mxGeometry>
        </mxCell>
        <mxCell id="YAMD4Npm-_OlHvw8ESmH-19" value="H" style="edgeStyle=orthogonalEdgeStyle;rounded=0;orthogonalLoop=1;jettySize=auto;html=1;" edge="1" parent="1" source="YAMD4Npm-_OlHvw8ESmH-8" target="YAMD4Npm-_OlHvw8ESmH-18">
          <mxGeometry relative="1" as="geometry" />
        </mxCell>
        <mxCell id="YAMD4Npm-_OlHvw8ESmH-8" value="i&amp;lt;n" style="rhombus;whiteSpace=wrap;html=1;" vertex="1" parent="1">
          <mxGeometry x="400" y="310" width="80" height="80" as="geometry" />
        </mxCell>
        <mxCell id="YAMD4Npm-_OlHvw8ESmH-13" value="" style="edgeStyle=orthogonalEdgeStyle;rounded=0;orthogonalLoop=1;jettySize=auto;html=1;" edge="1" parent="1" source="YAMD4Npm-_OlHvw8ESmH-10" target="YAMD4Npm-_OlHvw8ESmH-12">
          <mxGeometry relative="1" as="geometry" />
        </mxCell>
        <mxCell id="YAMD4Npm-_OlHvw8ESmH-10" value="sayi" style="shape=parallelogram;perimeter=parallelogramPerimeter;whiteSpace=wrap;html=1;fixedSize=1;" vertex="1" parent="1">
          <mxGeometry x="540" y="330" width="120" height="40" as="geometry" />
        </mxCell>
        <mxCell id="YAMD4Npm-_OlHvw8ESmH-15" value="" style="edgeStyle=orthogonalEdgeStyle;rounded=0;orthogonalLoop=1;jettySize=auto;html=1;" edge="1" parent="1" source="YAMD4Npm-_OlHvw8ESmH-12" target="YAMD4Npm-_OlHvw8ESmH-14">
          <mxGeometry relative="1" as="geometry" />
        </mxCell>
        <mxCell id="YAMD4Npm-_OlHvw8ESmH-12" value="toplam=toplam+sayi" style="whiteSpace=wrap;html=1;" vertex="1" parent="1">
          <mxGeometry x="540" y="440" width="120" height="40" as="geometry" />
        </mxCell>
        <mxCell id="YAMD4Npm-_OlHvw8ESmH-16" value="" style="edgeStyle=orthogonalEdgeStyle;rounded=0;orthogonalLoop=1;jettySize=auto;html=1;" edge="1" parent="1" source="YAMD4Npm-_OlHvw8ESmH-14" target="YAMD4Npm-_OlHvw8ESmH-8">
          <mxGeometry relative="1" as="geometry" />
        </mxCell>
        <mxCell id="YAMD4Npm-_OlHvw8ESmH-14" value="i=i+1" style="whiteSpace=wrap;html=1;" vertex="1" parent="1">
          <mxGeometry x="380" y="440" width="120" height="40" as="geometry" />
        </mxCell>
        <mxCell id="YAMD4Npm-_OlHvw8ESmH-21" value="" style="edgeStyle=orthogonalEdgeStyle;rounded=0;orthogonalLoop=1;jettySize=auto;html=1;" edge="1" parent="1" source="YAMD4Npm-_OlHvw8ESmH-18" target="YAMD4Npm-_OlHvw8ESmH-20">
          <mxGeometry relative="1" as="geometry" />
        </mxCell>
        <mxCell id="YAMD4Npm-_OlHvw8ESmH-18" value="toplam=toplam/n" style="whiteSpace=wrap;html=1;" vertex="1" parent="1">
          <mxGeometry x="220" y="320" width="120" height="60" as="geometry" />
        </mxCell>
        <mxCell id="YAMD4Npm-_OlHvw8ESmH-23" value="" style="edgeStyle=orthogonalEdgeStyle;rounded=0;orthogonalLoop=1;jettySize=auto;html=1;" edge="1" parent="1" source="YAMD4Npm-_OlHvw8ESmH-20" target="YAMD4Npm-_OlHvw8ESmH-22">
          <mxGeometry relative="1" as="geometry" />
        </mxCell>
        <mxCell id="YAMD4Npm-_OlHvw8ESmH-20" value="sayının ortalaması=toplam" style="shape=document;whiteSpace=wrap;html=1;boundedLbl=1;" vertex="1" parent="1">
          <mxGeometry x="220" y="450" width="120" height="80" as="geometry" />
        </mxCell>
        <mxCell id="YAMD4Npm-_OlHvw8ESmH-22" value="bitir" style="ellipse;whiteSpace=wrap;html=1;" vertex="1" parent="1">
          <mxGeometry x="220" y="610" width="120" height="80" as="geometry" />
        </mxCell>
      </root>
    </mxGraphModel>
  </diagram>
</mxfile>
